<svg xmlns="http://www.w3.org/2000/svg" viewBox="0 0 280 64" width="280" height="64" fill="none" role="img" aria-label="JobHunting">
  <mask id="jh-cut-full" maskUnits="userSpaceOnUse" x="0" y="0" width="64" height="64">
    <rect width="64" height="64" fill="#fff"/>
    <circle cx="43" cy="43" r="14.5" fill="#000"/>
    <path d="M48.6 48.6 58 58" stroke="#000" stroke-width="10" stroke-linecap="round"/>
  </mask>

  <g stroke="currentColor" stroke-width="3.5" stroke-linejoin="round" stroke-linecap="round">
    <g mask="url(#jh-cut-full)">
      <path d="M17 6h16l13 13v27a6 6 0 0 1-6 6H17a6 6 0 0 1-6-6V12a6 6 0 0 1 6-6Z"/>
      <path d="M33 6v9a4 4 0 0 0 4 4h9"/>
      <g stroke-width="3">
        <path d="M19.5 27h13"/>
        <path d="M19.5 35h18"/>
        <path d="M19.5 43h9"/>
      </g>
    </g>
    <circle cx="43" cy="43" r="10"/>
    <path d="M50.5 50.5 58 58" stroke-width="4.5"/>
  </g>

  <!-- Wordmark is live text so it inherits currentColor. If you later license a
       display face, convert this to outlines so it renders identically everywhere. -->
  <text x="78" y="43" font-family="Inter, ui-sans-serif, system-ui, -apple-system, 'Segoe UI', Helvetica, Arial, sans-serif"
        font-size="31" letter-spacing="-1.1" fill="currentColor">
    <tspan font-weight="700">Job</tspan><tspan font-weight="300">Hunting</tspan>
  </text>
</svg>
